<svg width="24" height="24" viewBox="0 0 24 24" fill="none" xmlns="http://www.w3.org/2000/svg">
<path fill-rule="evenodd" clip-rule="evenodd" d="M20.5 3.48746C19.3932 2.37796 18.0759 1.49831 16.6247 0.899582C15.1734 0.300859 13.617 -0.00500503 12.046 -0.000250588C5.46 -0.000250588 0.1 5.3343 0.1 11.8918C0.0998726 13.9787 0.651686 16.0288 1.7 17.8363L0 23.9998L6.336 22.345C8.08716 23.2949 10.0495 23.7933 12.044 23.7948C14.4084 23.7953 16.7198 23.098 18.686 21.7913C20.6522 20.4845 22.1847 18.6269 23.0899 16.4534C23.995 14.2799 24.2321 11.8881 23.7711 9.58053C23.3101 7.27295 22.1717 5.15323 20.5 3.48945V3.48746ZM12.05 21.7917C10.2695 21.7909 8.52199 21.3131 6.991 20.4086L6.627 20.1926L2.867 21.1728L3.867 17.5259L3.632 17.1517C2.32891 15.0929 1.83442 12.6283 2.24314 10.2294C2.65187 7.83047 3.93511 5.66575 5.84735 4.14937C7.7596 2.63299 10.1666 1.87141 12.6078 2.01035C15.049 2.14929 17.353 3.17899 19.079 4.90244C20.4692 6.28613 21.416 8.04892 21.7995 9.96796C22.183 11.887 21.9861 13.8761 21.2337 15.6838C20.4813 17.4915 19.2071 19.0366 17.5722 20.1238C15.9374 21.211 14.0153 21.7914 12.049 21.7917H12.05ZM17.5 14.3824C17.2 14.2322 15.733 13.5157 15.461 13.4162C15.189 13.3167 14.989 13.266 14.786 13.5665C14.583 13.867 14.014 14.5327 13.84 14.7327C13.666 14.9327 13.491 14.9586 13.195 14.8083C12.899 14.6581 11.932 14.3446 10.795 13.3316C10.1402 12.7306 9.57757 12.0373 9.125 11.2738C8.95 10.9753 9.106 10.8151 9.258 10.6698C9.41 10.5246 9.558 10.3236 9.705 10.1494C9.82931 9.99935 9.93042 9.83166 10.005 9.65189C10.0447 9.56997 10.0633 9.47951 10.0591 9.38866C10.0549 9.29782 10.0281 9.20943 9.981 9.13147C9.9 8.98221 9.3 7.51946 9.06 6.92342C8.82 6.32738 8.571 6.42589 8.387 6.41196C8.203 6.39803 8.014 6.403 7.817 6.403C7.66512 6.40654 7.51563 6.44135 7.37795 6.50523C7.24026 6.56911 7.11736 6.66068 7.017 6.77416C6.748 7.06969 5.975 7.79112 5.975 9.25386C5.975 10.7166 7.044 12.1276 7.194 12.3286C7.344 12.5296 9.3 15.5297 12.3 16.8164C13.012 17.1209 13.568 17.304 14 17.4453C14.6092 17.6281 15.2527 17.6679 15.88 17.5617C16.454 17.4781 17.646 16.8442 17.897 16.1507C18.148 15.4571 18.147 14.8571 18.072 14.7387C17.997 14.6203 17.803 14.5337 17.502 14.3814L17.5 14.3824Z" fill="#EBEBEB"/>
</svg>
